<?xml version="1.0" encoding="utf-8"?>
<!-- Generator: Adobe Illustrator 19.2.1, SVG Export Plug-In . SVG Version: 6.00 Build 0)  -->
<svg version="1.1" id="Capa_1" xmlns="http://www.w3.org/2000/svg" xmlns:xlink="http://www.w3.org/1999/xlink" x="0px" y="0px"
	 viewBox="0 0 512 512" style="enable-background:new 0 0 512 512;" xml:space="preserve">
<style type="text/css">
	.st0{fill:#387532;}
</style>
<g>
	<path class="st0" d="M462.9,4.9H49.1C22,4.9,0,26.9,0,54v404c0,27.1,22,49.1,49.1,49.1h413.9c27.1,0,49.1-22,49.1-49.1V54
		C512,26.9,490,4.9,462.9,4.9z M462.9,54l0,214.7L380,190.8c-5.8-5.4-13.2-8.4-20.9-8.4c-9.3,0-18.1,4.4-24,12l-97.6,126.4
		c-3.2,4.1-8.2,6.5-13.6,6.5c-3.6,0-7.1-1.1-9.9-3.2l-63.4-46.3c-6.3-4.6-14.5-7.2-23-7.2c-9.7,0-18.8,3.2-25.6,8.9l-52.9,44.9V54
		H462.9z"/>
	<path class="st0" d="M188.1,199.6c28,0,50.7-22.7,50.7-50.7s-22.7-50.7-50.7-50.7s-50.7,22.7-50.7,50.7S160.2,199.6,188.1,199.6z"
		/>
</g>
</svg>
