<?xml version="1.0" encoding="utf-8"?>
<!-- Generator: Adobe Illustrator 22.0.0, SVG Export Plug-In . SVG Version: 6.00 Build 0)  -->
<svg version="1.1" id="Слой_1" xmlns="http://www.w3.org/2000/svg" xmlns:xlink="http://www.w3.org/1999/xlink" x="0px" y="0px"
	 viewBox="0 0 32 32" style="enable-background:new 0 0 32 32;" xml:space="preserve">
<style type="text/css">
	.st0{fill:#FFFFFF;}
</style>
<path class="st0" d="M1,31c0.3,0.3,0.8,0.5,1.2,0.5s0.9-0.2,1.2-0.5l9.1-9.1c2,1.5,4.5,2.3,7.1,2.3c3.2,0,6.1-1.2,8.4-3.5
	c2.2-2.2,3.5-5.2,3.5-8.4c0-3.2-1.2-6.2-3.5-8.4c-2.2-2.2-5.2-3.5-8.4-3.5c-3.2,0-6.1,1.2-8.4,3.5s-3.5,5.2-3.5,8.4
	c0,2.6,0.8,5,2.3,7.1L1,28.5C0.3,29.2,0.3,30.3,1,31z M10.3,12.4c0-2.5,1-4.8,2.7-6.6c1.8-1.8,4.1-2.7,6.6-2.7c2.5,0,4.8,1,6.6,2.7
	c1.8,1.8,2.7,4.1,2.7,6.6s-1,4.8-2.7,6.6c-1.8,1.8-4.1,2.7-6.6,2.7c-2.3,0-4.6-0.9-6.3-2.4l-0.3-0.3l-0.3-0.3
	C11.2,16.9,10.3,14.7,10.3,12.4z"/>
</svg>
